<svg xmlns="http://www.w3.org/2000/svg" width="460" height="278" viewBox="0 0 460 278" role="img" aria-label="Most used languages">
  <rect x="1" y="1" width="458" height="276" rx="10" fill="#0D1117" stroke="#21262D"/>
  <text x="28" y="38" fill="#22D3EE" font-size="17" font-weight="700" font-family="-apple-system,BlinkMacSystemFont,Segoe UI,Helvetica,Arial,sans-serif">Most Used Languages</text>
  <line x1="28" y1="52" x2="432" y2="52" stroke="#21262D"/>
  <clipPath id="r"><rect x="28" y="88" width="404" height="12" rx="5"/></clipPath>
  <g clip-path="url(#r)"><rect x="28.00" y="88" width="206.43" height="12" fill="#3572A5"/><rect x="234.43" y="88" width="76.95" height="12" fill="#F1E05A"/><rect x="311.38" y="88" width="55.53" height="12" fill="#A97BFF"/><rect x="366.91" y="88" width="37.10" height="12" fill="#DA5B0B"/><rect x="404.01" y="88" width="16.54" height="12" fill="#663399"/><rect x="420.55" y="88" width="5.01" height="12" fill="#89E051"/><rect x="425.56" y="88" width="4.06" height="12" fill="#844FBA"/><rect x="429.62" y="88" width="2.00" height="12" fill="#384D54"/></g>
  <circle cx="33.0" cy="132" r="5" fill="#3572A5"/><text x="46.0" y="136" fill="#C9D1D9" font-size="12.5" font-family="-apple-system,BlinkMacSystemFont,Segoe UI,Helvetica,Arial,sans-serif">Python</text><text x="210.0" y="136" fill="#8B949E" font-size="12.5" text-anchor="end" font-family="-apple-system,BlinkMacSystemFont,Segoe UI,Helvetica,Arial,sans-serif">51.1%</text><circle cx="235.0" cy="132" r="5" fill="#F1E05A"/><text x="248.0" y="136" fill="#C9D1D9" font-size="12.5" font-family="-apple-system,BlinkMacSystemFont,Segoe UI,Helvetica,Arial,sans-serif">JavaScript</text><text x="412.0" y="136" fill="#8B949E" font-size="12.5" text-anchor="end" font-family="-apple-system,BlinkMacSystemFont,Segoe UI,Helvetica,Arial,sans-serif">19.0%</text><circle cx="33.0" cy="162" r="5" fill="#A97BFF"/><text x="46.0" y="166" fill="#C9D1D9" font-size="12.5" font-family="-apple-system,BlinkMacSystemFont,Segoe UI,Helvetica,Arial,sans-serif">Kotlin</text><text x="210.0" y="166" fill="#8B949E" font-size="12.5" text-anchor="end" font-family="-apple-system,BlinkMacSystemFont,Segoe UI,Helvetica,Arial,sans-serif">13.7%</text><circle cx="235.0" cy="162" r="5" fill="#DA5B0B"/><text x="248.0" y="166" fill="#C9D1D9" font-size="12.5" font-family="-apple-system,BlinkMacSystemFont,Segoe UI,Helvetica,Arial,sans-serif">Jupyter</text><text x="412.0" y="166" fill="#8B949E" font-size="12.5" text-anchor="end" font-family="-apple-system,BlinkMacSystemFont,Segoe UI,Helvetica,Arial,sans-serif">9.2%</text><circle cx="33.0" cy="192" r="5" fill="#663399"/><text x="46.0" y="196" fill="#C9D1D9" font-size="12.5" font-family="-apple-system,BlinkMacSystemFont,Segoe UI,Helvetica,Arial,sans-serif">CSS</text><text x="210.0" y="196" fill="#8B949E" font-size="12.5" text-anchor="end" font-family="-apple-system,BlinkMacSystemFont,Segoe UI,Helvetica,Arial,sans-serif">4.1%</text><circle cx="235.0" cy="192" r="5" fill="#89E051"/><text x="248.0" y="196" fill="#C9D1D9" font-size="12.5" font-family="-apple-system,BlinkMacSystemFont,Segoe UI,Helvetica,Arial,sans-serif">Shell</text><text x="412.0" y="196" fill="#8B949E" font-size="12.5" text-anchor="end" font-family="-apple-system,BlinkMacSystemFont,Segoe UI,Helvetica,Arial,sans-serif">1.2%</text><circle cx="33.0" cy="222" r="5" fill="#844FBA"/><text x="46.0" y="226" fill="#C9D1D9" font-size="12.5" font-family="-apple-system,BlinkMacSystemFont,Segoe UI,Helvetica,Arial,sans-serif">HCL</text><text x="210.0" y="226" fill="#8B949E" font-size="12.5" text-anchor="end" font-family="-apple-system,BlinkMacSystemFont,Segoe UI,Helvetica,Arial,sans-serif">1.0%</text><circle cx="235.0" cy="222" r="5" fill="#384D54"/><text x="248.0" y="226" fill="#C9D1D9" font-size="12.5" font-family="-apple-system,BlinkMacSystemFont,Segoe UI,Helvetica,Arial,sans-serif">Dockerfile</text><text x="412.0" y="226" fill="#8B949E" font-size="12.5" text-anchor="end" font-family="-apple-system,BlinkMacSystemFont,Segoe UI,Helvetica,Arial,sans-serif">0.4%</text>
</svg>
